# xmcd
#
# Track frame offsets:
#	150
#	13877
#	25090
#	39490
#	53252
#	66630
#	79657
#	91952
#	104817
#	118862
#	130382
#	144572
#	157917
#	170287
#	186195
#	199122
#
# Disc length: 2861 seconds
#
# Revision: 1
# Processed by: cddbd v1.4PL0 Copyright (c) Steve Scherf et al.
# Submitted via: audiograbber 1.82.00
#
DISCID=db0b2b10
DTITLE=Percy Sledge - 16 Original Hits
DYEAR=1900
DGENRE=Soul
TTITLE0=My special prayer
TTITLE1=What am I living for
TTITLE2=Warm and tender love
TTITLE3=Take time to know her
TTITLE4=You're all around me
TTITLE5=Come softly to me
TTITLE6=Cover me
TTITLE7=When a man loves a woman
TTITLE8=Love me tender
TTITLE9=A sweet woman like you
TTITLE10=You send me
TTITLE11=It's all wrong but it's alright
TTITLE12=It tears me up
TTITLE13=Just out of reach (of my two empty arms)
TTITLE14=You've really got a hold on me
TTITLE15=Out of left field
EXTD=
EXTT0=
EXTT1=
EXTT2=
EXTT3=
EXTT4=
EXTT5=
EXTT6=
EXTT7=
EXTT8=
EXTT9=
EXTT10=
EXTT11=
EXTT12=
EXTT13=
EXTT14=
EXTT15=
PLAYORDER=
